# AST/ASF file generated using VICON BodyLanguage
# -----------------------------------------------
:version 1.10
:name VICON
:units
  mass 1.0
  length 0.45
  angle deg
:documentation
   .ast/.asf automatically generated from VICON data using
   VICON BodyBuilder and BodyLanguage model FoxedUp or BRILLIANT.MOD
:root
   order TX TY TZ RX RY RZ
   axis XYZ
   position 0 0 0  
   orientation 0 0 0 
:bonedata
  begin
     id 1 
     name lhipjoint
     direction 0.722297 -0.617336 0.311742 
     length 2.6635 
     axis 0 0 0  XYZ
  end
  begin
     id 2 
     name lfemur
     direction 0.34202 -0.939693 0  
     length 7.39349  
     axis 0 0 20  XYZ
    dof rx ry rz
    limits (-160.0 20.0)
           (-70.0 70.0)
           (-60.0 70.0)
  end
  begin
     id 3 
     name ltibia
     direction 0.34202 -0.939693 0   
     length 7.36294   
     axis 0 0 20   XYZ
    dof rx
    limits (-10.0 170.0)
  end
  begin
     id 4 
     name lfoot
     direction 0.104879 -0.288152 0.951824   
     length 2.16981   
     axis -90 7.62852e-016 20   XYZ
    dof rx rz
    limits (-45.0 90.0)
           (-70.0 20.0)
  end
  begin
     id 5 
     name ltoes
     direction 1.53586e-011 -4.21895e-011 1   
     length 1.08218   
     axis -90 7.62852e-016 20   XYZ
    dof rx
    limits (-90.0 20.0)
  end
  begin
     id 6 
     name rhipjoint
     direction -0.75102 -0.589393 0.297631   
     length 2.78977  
     axis 0 0 0  XYZ 
  end
  begin
     id 7 
     name rfemur
     direction -0.34202 -0.939693 0   
     length 7.46076   
     axis 0 0 -20   XYZ
    dof rx ry rz
    limits (-160.0 20.0)
           (-70.0 70.0)
           (-70.0 60.0)
  end
  begin
     id 8 
     name rtibia
     direction -0.34202 -0.939693 0   
     length 7.31726   
     axis 0 0 -20   XYZ
    dof rx
    limits (-10.0 170.0)
 end
 begin
     id 9 
     name rfoot
     direction -0.107991 -0.296704 0.948844   
     length 2.09388  
     axis -90 -7.62852e-016 -20   XYZ
    dof rx rz
    limits (-45.0 90.0)
           (-20.0 70.0)
  end
  begin
     id 10 
     name rtoes
     direction -1.53559e-011 -4.21911e-011 1   
     length 1.04433   
     axis -90 -7.62852e-016 -20   XYZ
    dof rx
    limits (-90.0 20.0)
  end
  begin
     id 11 
     name lowerback
     direction 0.0165164 0.98272 0.184358   
     length 1.71896   
     axis 0 0 0   XYZ
    dof rx ry rz
    limits (-20.0 45.0)
           (-30.0 30.0)
           (-30.0 30.0)
  end
  begin
     id 12 
     name upperback
     direction -0.00887249 0.992297 0.123566   
     length 1.71504   
     axis 0 0 0   XYZ
    dof rx ry rz
    limits (-20.0 45.0)
           (-30.0 30.0)
           (-30.0 30.0)
  end
  begin
     id 13 
     name thorax
     direction -0.0157026 0.998908 0.0440032   
     length 1.77022   
     axis 0 0 0   XYZ
    dof rx ry rz
    limits (-20.0 45.0)
           (-30.0 30.0)
           (-30.0 30.0)
  end
  begin
     id 14 
     name lowerneck
     direction -0.0238856 0.998137 0.0561411   
     length 1.89341   
     axis 0 0 0   XYZ
    dof rx ry rz
    limits (-20.0 45.0)
           (-30.0 30.0)
           (-30.0 30.0)
  end
  begin
     id 15 
     name upperneck
     direction 0.0276574 0.952253 -0.304056   
     length 1.86999   
     axis 0 0 0   XYZ
    dof rx ry rz
    limits (-20.0 45.0)
           (-30.0 30.0)
           (-30.0 30.0)
  end
  begin
     id 16
     name head
     direction 0.00800083 0.994258 -0.106712  
     length 1.91492  
     axis 0 0 0   XYZ
    dof rx ry rz
    limits (-20.0 45.0)
           (-30.0 30.0)
           (-30.0 30.0)
  end
  begin
     id 17 
     name lclavicle
     direction 0.97203 0.225407 0.06595  
     length 3.34889  
     axis 0 0 0   XYZ
    dof ry rz
    limits (-20.0 10.0)
           (0.0 20.0)
  end
  begin
     id 18 
     name lhumerus
     direction 1 -4.48973e-011 2.20267e-027   
     length 4.85645   
     axis 180 -30 -90   XYZ
    dof rx ry rz
    limits (-60.0 90.0)
           (-90.0 90.0)
           (-90.0 90.0)
  end
  begin
     id 19
     name lradius
     direction 1 -4.4897e-011 4.60472e-027   
     length 2.79874   
     axis 180 -30 -90   XYZ
    dof rx
    limits (-10.0 170.0)
  end
  begin
     id 20
     name lwrist
     direction 1 -4.48952e-011 1.14928e-026   
     length 1.39937   
     axis -6.29373e-015 90 90   XYZ
    dof ry
    limits (-180.0 0.0)
 end
  begin
     id 21 
     name lhand
     direction 1 -4.48967e-011 2.29886e-026   
     length 0.573398   
     axis -1.46689e-014 90 90   XYZ
    dof rx rz
    limits (-90.0 90.0)
           (-45.0 45.0)
  end
  begin
     id 22 
     name lfingers
     direction 1 -4.48955e-011 4.59726e-026   
     length 0.462289   
     axis -2.93383e-014 90 90   XYZ
    dof rx
    limits (0.0 90.0)
  end
  begin
     id 23
     name lthumb
     direction 0.707107 -6.34866e-011 0.707107   
     length 0.663757   
     axis -90 45 5.69224e-014   XYZ
    dof rx rz
    limits (-45.0 45.0)
           (-45.0 45.0)
  end
  begin
     id 24 
     name rclavicle
     direction -0.981571 0.157346 0.108443   
     length 3.35257  
     axis 0 0 0   XYZ 
    dof ry rz
    limits (-10.0 20.0)
           (-20.0 0.0)
  end
  begin
     id 25 
     name rhumerus
     direction -1 -4.48967e-011 8.58308e-029  
     length 4.67018   
     axis 180 30 90   XYZ
    dof rx ry rz
    limits (-90.0 60.0)
           (-90.0 90.0)
           (-90.0 90.0)
  end
  begin
     id 26 
     name rradius
     direction -1 -4.48958e-011 4.52548e-027   
     length 2.65534   
     axis 180 30 90   XYZ
    dof rx
    limits (-10.0 170.0)
  end
  begin
     id 27 
     name rwrist
     direction -1 -4.48977e-011 1.14952e-026   
     length 1.32767   
     axis -6.29373e-015 -90 -90   XYZ
    dof ry
    limits (-180.0 0.0)
  end
  begin
     id 28
     name rhand
     direction -1 -4.48924e-011 2.29804e-026   
     length 0.594069   
     axis -1.46689e-014 -90 -90   XYZ
    dof rx rz
    limits (-90.0 90.0)
           (-45.0 45.0)
  end
  begin
     id 29
     name rfingers
     direction -1 -4.48998e-011 4.59888e-026   
     length 0.478954   
     axis -2.93383e-014 -90 -90   XYZ
    dof rx
    limits (0.0 90.0)
  end
  begin
     id 30
     name rthumb
     direction -0.707107 -6.34933e-011 0.707107   
     length 0.687685   
     axis -90 -45 -5.69224e-014   XYZ
    dof rx rz
    limits (-45.0 45.0)
           (-45.0 45.0)
  end
:hierarchy
  begin
    root lhipjoint rhipjoint lowerback
    lhipjoint lfemur
    lfemur ltibia
    ltibia lfoot
    lfoot ltoes
    rhipjoint rfemur
    rfemur rtibia
    rtibia rfoot
    rfoot rtoes
    lowerback upperback
    upperback thorax
    thorax lowerneck lclavicle rclavicle
    lowerneck upperneck
    upperneck head
    lclavicle lhumerus
    lhumerus lradius
    lradius lwrist
    lwrist lhand lthumb
    lhand lfingers
    rclavicle rhumerus
    rhumerus rradius
    rradius rwrist
    rwrist rhand rthumb
    rhand rfingers
  end

#!OML:ASF E:\pregnant2\Project 1\Capture day 1\Session 1\pregnant2.ASF
:FULLY-SPECIFIED
:DEGREES
1469
root 3.90006 16.5954 35.1126 -145.004 7.56978 537.199
lowerback -20.9056 -3.96124 -1.26403
upperback -16.757 -0.833103 1.47541
thorax -6.69799 1.63935 1.96643
lowerneck -12.0475 -10.3827 -10.1206
upperneck 39.79 -9.75051 1.89134
head 17.3017 -3.86603 1.26514
rclavicle 4.57205e-015 -2.5842e-014
rhumerus -45.6043 -5.18776 -67.5055
rradius 27.8296
rwrist 15.1918
rhand -11.0683 -21.6054
rfingers 7.12502
rthumb 14.9547 -51.0455
lclavicle 4.57205e-015 -2.5842e-014
lhumerus -44.7092 12.4648 70.9967
lradius 29.3126
lwrist -0.613875
lhand -19.662 35.0121
lfingers 7.12502
lthumb 6.66607 64.8871
rfemur -62.534 -1.22868 20.4136
rtibia 69.7857
rfoot -10.1565 -8.45531
rtoes -8.54154
lfemur -50.8122 -7.02316 -25.9053
ltibia 36.1246
lfoot -17.2477 11.3597
ltoes -14.1062
1470
root 3.8912 16.5825 35.0106 -144.969 7.65839 537.279
lowerback -20.9025 -4.00399 -1.25116
upperback -16.7228 -0.912343 1.55227
thorax -6.65467 1.59303 2.03279
lowerneck -11.8124 -10.5744 -10.4862
upperneck 39.5445 -10.0616 1.99256
head 17.1769 -4.06306 1.30932
rclavicle 4.02539e-015 -8.34896e-015
rhumerus -45.6238 -5.24126 -67.4795
rradius 27.6813
rwrist 15.301
rhand -11.003 -21.5513
rfingers 7.12502
rthumb 15.0176 -50.9867
lclavicle 4.02539e-015 -8.34896e-015
lhumerus -44.382 12.5334 71.4724
lradius 29.4294
lwrist -0.425467
lhand -19.6031 34.9773
lfingers 7.12502
lthumb 6.72296 64.8505
rfemur -63.4312 -0.955595 20.5637
rtibia 69.0686
rfoot -10.5775 -8.58649
rtoes -8.45094
lfemur -50.5934 -6.83932 -26.0548
ltibia 36.4538
lfoot -17.7445 11.4249
ltoes -14.2899
1471
root 3.88326 16.5702 34.9078 -144.928 7.74951 537.356
lowerback -20.9051 -4.04822 -1.24865
upperback -16.6918 -0.989693 1.63318
thorax -6.6118 1.54987 2.10941
lowerneck -11.5479 -10.7556 -10.8574
upperneck 39.2513 -10.3695 2.10793
head 17.0231 -4.26057 1.3619
rclavicle 3.61788e-014 8.34896e-015
rhumerus -45.6498 -5.28572 -67.455
rradius 27.5591
rwrist 15.3621
rhand -10.9244 -21.512
rfingers 7.12502
rthumb 15.0933 -50.9417
lclavicle 3.61788e-014 8.34896e-015
lhumerus -44.0476 12.601 71.9588
lradius 29.552
lwrist -0.19093
lhand -19.5349 34.9534
lfingers 7.12502
lthumb 6.78885 64.8245
rfemur -64.2778 -0.655741 20.688
rtibia 68.1863
rfoot -10.9659 -8.74969
rtoes -8.36507
lfemur -50.3575 -6.70216 -26.1743
ltibia 36.7389
lfoot -18.2044 11.5401
ltoes -14.472
1472
root 3.87628 16.5592 34.8041 -144.884 7.84472 537.429
lowerback -20.9124 -4.09443 -1.25742
upperback -16.665 -1.06545 1.71666
thorax -6.57126 1.50985 2.19511
lowerneck -11.2739 -10.9255 -11.2165
upperneck 38.9317 -10.6679 2.22316
head 16.8542 -4.45356 1.41451
rclavicle -6.31141e-015 1.15295e-014
rhumerus -45.6895 -5.31563 -67.4333
rradius 27.4628
rwrist 15.3837
rhand -10.8405 -21.4982
rfingers 7.12502
rthumb 15.1741 -50.9218
lclavicle -6.31141e-015 1.15295e-014
lhumerus -43.7166 12.658 72.4531
lradius 29.681
lwrist 0.0632511
lhand -19.4637 34.9169
lfingers 7.12502
lthumb 6.85752 64.7859
rfemur -65.0631 -0.327486 20.7802
rtibia 67.1345
rfoot -11.3223 -8.93756
rtoes -8.2763
lfemur -50.0925 -6.61261 -26.266
ltibia 36.9633
lfoot -18.6197 11.7058
ltoes -14.6597
1473
root 3.87029 16.5504 34.6995 -144.839 7.94396 537.499
lowerback -20.9227 -4.13955 -1.275
upperback -16.6423 -1.13626 1.79765
thorax -6.53376 1.47398 2.28354
lowerneck -10.998 -11.0851 -11.5575
upperneck 38.6002 -10.9564 2.33774
head 16.6796 -4.6398 1.46609
rclavicle 1.04362e-015 -1.47101e-014
rhumerus -45.7449 -5.34832 -67.4074
rradius 27.3837
rwrist 15.392
rhand -10.7595 -21.4753
rfingers 7.12502
rthumb 15.2521 -50.893
lclavicle 1.04362e-015 -1.47101e-014
lhumerus -43.3888 12.693 72.9528
lradius 29.8127
lwrist 0.309798
lhand -19.3877 34.86
lfingers 7.12502
lthumb 6.93086 64.7266
rfemur -65.7755 0.0231866 20.8393
rtibia 65.9091
rfoot -11.6474 -9.14173
rtoes -8.20119
lfemur -49.7863 -6.56534 -26.3337
ltibia 37.1122
lfoot -18.984 11.9091
ltoes -14.8442
1474
root 3.86527 16.5445 34.5937 -144.797 8.04563 537.562
lowerback -20.9347 -4.18366 -1.30176
upperback -16.6236 -1.20239 1.87261
thorax -6.49989 1.44188 2.37104
lowerneck -10.7262 -11.2369 -11.8781
upperneck 38.2689 -11.2364 2.45043
head 16.507 -4.81884 1.51547
rclavicle -1.94312e-014 2.90226e-014
rhumerus -45.822 -5.3763 -67.3844
rradius 27.3279
rwrist 15.3902
rhand -10.6792 -21.4359
rfingers 7.12502
rthumb 15.3295 -50.8478
lclavicle -1.94312e-014 2.90226e-014
lhumerus -43.0662 12.7032 73.453
lradius 29.9441
lwrist 0.521892
lhand -19.3143 34.7657
lfingers 7.12502
lthumb 7.00172 64.6299
rfemur -66.4058 0.389625 20.8624
rtibia 64.509
rfoot -11.9381 -9.36799
rtoes -8.13302
lfemur -49.4289 -6.55206 -26.3869
ltibia 37.1725
lfoot -19.2961 12.136
ltoes -15.0225
1475
root 3.86133 16.5413 34.4868 -144.758 8.15011 537.617
lowerback -20.9475 -4.22773 -1.33763
upperback -16.6098 -1.26496 1.94103
thorax -6.47131 1.41306 2.45687
lowerneck -10.4731 -11.3819 -12.1819
upperneck 37.9574 -11.5062 2.56626
head 16.3505 -4.98855 1.56527
rclavicle -9.44227e-015 7.55382e-015
rhumerus -45.921 -5.39386 -67.3688
rradius 27.2933
rwrist 15.3827
rhand -10.608 -21.404
rfingers 7.12502
rthumb 15.3981 -50.8106
lclavicle -9.44227e-015 7.55382e-015
lhumerus -42.7529 12.6797 73.9547
lradius 30.0767
lwrist 0.699717
lhand -19.2389 34.6267
lfingers 7.12502
lthumb 7.07457 64.4885
rfemur -66.952 0.767411 20.85
rtibia 62.9382
rfoot -12.2015 -9.59418
rtoes -8.07921
lfemur -49.0187 -6.54939 -26.4424
ltibia 37.1391
lfoot -19.554 12.3725
ltoes -15.2588
1476
root 3.85843 16.5411 34.3788 -144.72 8.25688 537.661
lowerback -20.9624 -4.27648 -1.38688
upperback -16.6034 -1.3285 2.0058
thorax -6.44969 1.3863 2.54579
lowerneck -10.2327 -11.5218 -12.4723
upperneck 37.669 -11.7659 2.68037
head 16.2098 -5.14987 1.61419
rclavicle 1.82882e-014 -3.02153e-014
rhumerus -46.0417 -5.39076 -67.3621
rradius 27.2785
rwrist 15.3733
rhand -10.5465 -21.3548
rfingers 7.12502
rthumb 15.4574 -50.7567
lclavicle 1.82882e-014 -3.02153e-014
lhumerus -42.4598 12.6376 74.4478
lradius 30.2108
lwrist 0.809519
lhand -19.157 34.4453
lfingers 7.12502
lthumb 7.15358 64.3044
rfemur -67.4157 1.14889 20.7992
rtibia 61.2011
rfoot -12.4269 -9.81373
rtoes -8.04967
lfemur -48.5571 -6.53986 -26.5144
ltibia 37.0111
lfoot -19.7679 12.5942
ltoes -15.5301
1477
root 3.8566 16.5432 34.2696 -144.682 8.36268 537.694
lowerback -20.9804 -4.32968 -1.44702
upperback -16.604 -1.39311 2.06633
thorax -6.43426 1.36129 2.63578
lowerneck -10.0139 -11.6594 -12.7489
upperneck 37.4101 -12.018 2.79141
head 16.0899 -5.30387 1.66054
rclavicle -1.2921e-014 -1.27222e-014
rhumerus -46.1832 -5.37094 -67.3624
rradius 27.28
rwrist 15.3629
rhand -10.4901 -21.2945
rfingers 7.12502
rthumb 15.5116 -50.6923
lclavicle -1.2921e-014 -1.27222e-014
lhumerus -42.1831 12.573 74.9341
lradius 30.3477
lwrist 0.859533
lhand -19.0513 34.2596
lfingers 7.12502
lthumb 7.25568 64.1152
rfemur -67.8001 1.52583 20.7162
rtibia 59.3065
rfoot -12.6157 -10.0116
rtoes -8.02315
lfemur -48.0496 -6.5127 -26.6068
ltibia 36.7939
lfoot -19.9453 12.784
ltoes -15.8278
1478
root 3.85597 16.5476 34.1593 -144.648 8.45997 537.715
lowerback -21.0008 -4.39224 -1.51961
upperback -16.6112 -1.46516 2.1261
thorax -6.42417 1.33511 2.73055
lowerneck -9.80752 -11.7929 -13.0131
upperneck 37.1756 -12.2616 2.90153
head 15.9854 -5.45034 1.70607
rclavicle -7.90169e-015 0
rhumerus -46.3399 -5.3353 -67.3664
rradius 27.2884
rwrist 15.3586
rhand -10.4425 -21.2355
rfingers 7.12502
rthumb 15.5575 -50.6297
lclavicle -7.90169e-015 0
lhumerus -41.9364 12.4927 75.4088
lradius 30.5093
lwrist 0.848297
lhand -18.8943 34.1352
lfingers 7.12502
lthumb 7.40719 63.9856
rfemur -68.0997 1.89259 20.6034
rtibia 57.2612
rfoot -12.7482 -10.1888
rtoes -8.01375
lfemur -47.4918 -6.46564 -26.7185
ltibia 36.4904
lfoot -20.0973 12.9244
ltoes -16.1024
